<svg width="134" height="49" viewBox="0 0 134 49" fill="none" xmlns="http://www.w3.org/2000/svg">
<g id="Logos">
<g id="Group 1">
<path id="Vector" d="M32.4071 18.4148L38.59 24.703L32.4071 30.9913L35.4986 34.1286L44.7729 24.703L35.4986 15.2775L32.4071 18.4148ZM32.4071 24.703L29.3157 27.8403L26.2242 24.703L29.3157 21.5657L32.4071 24.703Z" fill="white"/>
<path id="Cubyn" d="M57.3705 31.3051C53.0534 31.3051 51.1059 28.5361 51.1059 24.8668V22.8207C51.1059 19.1514 53.0534 16.3824 57.3705 16.3824C60.9931 16.3824 63.2265 18.8377 63.3627 21.7704H60.7071C60.5164 20.1472 59.495 18.7422 57.3705 18.7422C54.9736 18.7422 53.9522 20.3791 53.9522 22.6843V25.0168C53.9522 27.3084 54.9736 28.9589 57.3705 28.9589C59.495 28.9589 60.5164 27.5403 60.7071 25.9307H63.3627C63.2129 28.8498 60.9931 31.3051 57.3705 31.3051ZM74.5572 20.3654V31.0323H71.9016V29.7637C71.4113 30.664 70.1857 31.2778 68.8102 31.2778C66.4133 31.2778 65.0787 29.6137 65.0787 27.1993V20.3791H67.8569V26.8037C67.8569 28.1541 68.4969 28.9317 69.7362 28.9317C71.03 28.9317 71.7654 28.1132 71.7654 26.7765V20.3654H74.5572ZM82.5242 31.2642C80.9853 31.2642 79.8685 30.6094 79.3783 29.7501V31.0186H76.7226V16.0551H79.5008V21.5522C80.0728 20.7474 81.1351 20.1199 82.5514 20.1199C85.4113 20.1199 87.0183 22.2478 87.0183 24.8122V26.5718C87.0047 29.0953 85.3977 31.2642 82.5242 31.2642ZM81.8569 29.0135C83.4775 29.0135 84.2265 27.8677 84.2265 26.4491V24.935C84.2265 23.4345 83.4094 22.3706 81.8296 22.3706C80.5631 22.3706 79.5008 23.2709 79.5008 24.8941V26.4491C79.5008 27.9495 80.4405 29.0135 81.8569 29.0135ZM92.7246 34.5924H89.9872L91.0495 30.9777L87.3588 20.3518H90.137L92.4249 28.0041L94.5903 20.3518H97.3549L92.7246 34.5924ZM98.3763 31.0186V20.3518H101.032V21.6204C101.563 20.6382 102.653 20.1063 104.164 20.1063C106.479 20.1063 107.937 21.6204 107.937 24.1848V31.005H105.158V24.6349C105.158 23.4073 104.559 22.5206 103.211 22.5206C101.958 22.5206 101.168 23.2572 101.168 24.6895V31.005H98.3763V31.0186Z" fill="white"/>
</g>
</g>
</svg>
