<svg width="26" height="26" viewBox="0 0 26 26" fill="none" xmlns="http://www.w3.org/2000/svg">
<g id="figma">
<path id="Icon" d="M13 1.625H9.20835C7.11427 1.625 5.41669 3.32259 5.41669 5.41667C5.41669 7.51075 7.11427 9.20833 9.20835 9.20833M13 1.625V9.20833M13 1.625H16.7917C18.8858 1.625 20.5834 3.32259 20.5834 5.41667C20.5834 7.51075 18.8858 9.20833 16.7917 9.20833M13 9.20833H9.20835M13 9.20833V16.7917M13 9.20833H16.7917M9.20835 9.20833C7.11427 9.20833 5.41669 10.9059 5.41669 13C5.41669 15.0941 7.11427 16.7917 9.20835 16.7917M13 16.7917H9.20835M13 16.7917V20.5833C13 22.6774 11.3024 24.375 9.20835 24.375C7.11427 24.375 5.41669 22.6774 5.41669 20.5833C5.41669 18.4893 7.11427 16.7917 9.20835 16.7917M16.7917 9.20833C18.8858 9.20833 20.5834 10.9059 20.5834 13C20.5834 15.0941 18.8858 16.7917 16.7917 16.7917C14.6976 16.7917 13 15.0941 13 13C13 10.9059 14.6976 9.20833 16.7917 9.20833Z" stroke="#616161" stroke-width="1.6" stroke-linecap="round" stroke-linejoin="round"/>
</g>
</svg>
